<?xml version="1.0" encoding="utf-8"?>
<!-- Generator: Adobe Illustrator 26.0.0, SVG Export Plug-In . SVG Version: 6.00 Build 0)  -->
<svg version="1.1" id="Capa_1" xmlns="http://www.w3.org/2000/svg" xmlns:xlink="http://www.w3.org/1999/xlink" x="0px" y="0px"
	 viewBox="0 0 1048.8 198.4" style="enable-background:new 0 0 1048.8 198.4;" xml:space="preserve">
<style type="text/css">
	.st0{fill:#101214;}
	.st1{fill:#FFFFFF;}
</style>
<g>
	<g>
		<rect x="8.8" y="9.9" class="st0" width="1031.4" height="177.7"/>
	</g>
	<g>
		<g>
			<polygon class="st1" points="325.3,37 294.4,152.5 320.8,152.5 351.6,37 			"/>
			<path class="st1" d="M392.4,124.7c-1.2-3-0.5-6.4,1.9-8.6l24.2-23.1c0.1-0.5,0.1-1.1,0.2-1.6c0.2-2.8,0.1-5.2-0.3-7.3
				c-0.5-2.1-1.2-3.8-2.3-5.2c-1-1.4-2.4-2.5-4.2-3.3c-1.6-0.7-3.4-1.3-5.5-1.8c-2-0.5-4.2-1-6.5-1.3c-2.3-0.3-4.7-0.6-7.3-0.9
				c-2.5-0.2-5.2-0.3-8-0.3c-2.4,0-4.8,0.1-7.1,0.3c-2.3,0.2-4.6,0.4-6.8,0.6c-2.2,0.3-4.3,0.7-6.3,1.1c-2,0.4-4,0.9-5.8,1.5
				c-1.8,0.6-3.6,1.5-5.3,2.7c-1.7,1.2-3.1,2.7-4.4,4.4c-1.4,1.7-2.6,3.8-3.6,6.1c-1,2.3-2,4.9-2.8,7.8h26.7V96
				c0.2-0.9,0.5-1.8,0.9-2.5c0.3-0.8,0.7-1.4,1.2-2c0.3-0.6,0.7-1.1,1.2-1.6c0.5-0.5,0.9-0.8,1.4-1c0.6-0.2,1.2-0.5,1.7-0.7
				c0.6-0.2,1.3-0.4,2.1-0.5c0.7-0.1,1.4-0.2,2.3-0.3c0.8-0.1,1.7-0.1,2.6-0.1c0.9,0,1.8,0.1,2.7,0.2c0.9,0.1,1.6,0.3,2.3,0.5
				c0.7,0.1,1.3,0.3,1.8,0.6c0.5,0.3,1,0.6,1.3,1c0.3,0.3,0.6,0.8,0.8,1.3c0.2,0.5,0.3,1.1,0.4,1.8c0,0.7,0,1.4-0.1,2.2
				c-0.1,0.8-0.2,1.6-0.4,2.5l-4,14.7l-1.2,0.3c-0.1-0.9-0.3-1.8-0.7-2.5c-0.3-0.8-0.8-1.4-1.2-2c-0.5-0.6-1-1.1-1.6-1.6
				c-0.6-0.5-1.3-0.8-2.1-1c-0.2-0.1-0.5-0.2-0.8-0.3c-0.3-0.1-0.5-0.1-0.8-0.3c-0.5-0.1-1-0.2-1.5-0.3c-0.5-0.1-1.1-0.2-1.6-0.3
				c-0.8-0.1-1.6-0.2-2.4-0.3c-0.8-0.1-1.7-0.1-2.6-0.3c-0.1,0-0.2,0-0.3,0c-0.1,0-0.2,0-0.3,0c-0.1,0-0.1,0-0.3,0
				c-0.1,0-0.2,0-0.3,0c-0.1,0-0.2,0-0.3,0c-0.1,0-0.2,0-0.3,0c-0.1,0-0.2,0-0.3,0c-0.1,0-0.2,0-0.3,0c-0.1,0-0.2,0-0.3,0
				c-2.4,0-4.7,0.1-6.9,0.3c-2.2,0.2-4.3,0.6-6.2,1c-2,0.5-3.8,1-5.6,1.6c-1.8,0.6-3.5,1.3-5.1,2.3c-1.6,0.8-3.1,1.9-4.5,3.2
				c-1.4,1.3-2.7,2.9-3.8,4.6c-1.2,1.7-2.2,3.7-3.1,6c-0.9,2.3-1.8,4.7-2.6,7.4c-0.6,2.2-1,4.2-1.1,6.1c-0.2,1.8-0.1,3.6,0.1,5.2
				c0.2,1.5,0.7,2.8,1.3,4c0.6,1.2,1.5,2.2,2.5,3.1c0.9,0.8,2,1.6,3.4,2.3c1.3,0.7,2.7,1.2,4.2,1.6c1.6,0.2,3.3,0.5,5,0.7
				c1.7,0.2,3.6,0.3,5.7,0.3c0.1,0,0.2,0,0.3,0c0.1,0,0.1,0,0.3,0c0.1,0,0.2,0,0.3,0c0.2,0,0.4,0,0.6,0c0.2,0,0.3,0,0.4,0
				c0.2-0.1,0.4-0.2,0.6-0.2s0.3,0,0.4,0c0.2,0,0.4,0,0.6,0c0.2,0,0.3,0,0.4,0c0.2,0,0.4,0,0.6,0s0.3,0,0.4,0c0.1,0,0.2,0,0.3,0
				c0.1,0,0.2,0,0.3,0c0.1-0.1,0.2-0.2,0.3-0.2c0.1,0,0.2,0,0.3,0c0.1,0,0.2,0,0.3,0c0.1,0,0.1,0,0.3,0c0.1-0.1,0.2-0.2,0.3-0.2
				c0.1,0,0.1,0,0.3,0c0.2,0,0.4,0,0.6,0s0.3,0,0.4,0c0.3,0,0.7,0,1-0.1c0.3-0.1,0.6-0.1,1-0.1c0.7,0,1.4-0.1,2-0.2
				c0.6-0.1,1.2-0.2,1.8-0.3c0.9-0.2,1.9-0.5,2.9-0.9c1-0.3,2-0.8,3-1.2c0.9-0.5,1.8-1,2.6-1.6c0.8-0.6,1.6-1.3,2.3-2.1
				c0.7-0.7,1.4-1.5,2-2.5c0.6-1,1.2-2,1.6-3.2h1l-4.2,12H403l6.1-22.9h-9.5C396.4,129.6,393.6,127.7,392.4,124.7z M383.8,124.1
				c0,0.2,0,0.5,0,0.7c0,0.2-0.1,0.5-0.2,0.7c0,0.1,0,0.3,0,0.5c0,0.1,0,0.2-0.1,0.3c-0.1,0.1-0.1,0.2-0.1,0.3c0,0.1,0,0.2,0,0.3
				v0.2c-0.1,0.1-0.2,0.2-0.2,0.3v0.2c-0.2,1-0.5,2-1,2.8c-0.4,0.8-0.9,1.5-1.5,2.1c-0.5,0.6-1,1.1-1.6,1.6c-0.6,0.5-1.3,0.8-2,1
				c-0.8,0.2-1.6,0.4-2.3,0.6c-0.8,0.2-1.5,0.3-2.2,0.4c-0.8,0.1-1.6,0.2-2.4,0.3c-0.8,0.1-1.6,0.1-2.4,0.1c-0.8,0-1.6,0-2.5,0
				c-0.9,0-1.6-0.1-2.3-0.2c-0.7-0.1-1.4-0.3-2-0.4c-0.6-0.2-1.2-0.3-1.8-0.4c-0.7-0.2-1.2-0.5-1.6-0.9c-0.4-0.3-0.7-0.9-0.8-1.6
				c-0.1-0.7-0.1-1.5-0.1-2.4c0.1-0.9,0.3-2,0.6-3.1v0.3c0.2-0.9,0.5-1.8,0.8-2.5c0.3-0.8,0.7-1.4,1.1-2c0.3-0.6,0.8-1.1,1.3-1.5
				c0.5-0.4,1.1-0.7,1.8-1c0.6-0.2,1.2-0.4,1.9-0.6c0.7-0.2,1.4-0.3,2.3-0.4c0.7-0.1,1.4-0.2,2.2-0.3c0.7-0.1,1.5-0.1,2.3-0.1
				c0.2,0,0.4,0,0.6,0c0.2,0,0.4,0,0.6,0c0.2,0,0.5,0,0.7,0c0.2,0,0.5,0,0.7,0c0.1,0,0.2,0,0.3,0c0.1,0,0.2,0,0.3,0
				c0.1,0,0.3,0,0.4,0s0.3,0,0.4,0c0.1,0.1,0.2,0.2,0.3,0.2c0.1,0,0.2,0,0.3,0c0.1,0,0.2,0,0.3,0c0.1,0,0.2,0,0.3,0
				c0.2,0,0.4,0,0.5,0.1c0.1,0.1,0.3,0.1,0.5,0.1c0.1,0.1,0.3,0.2,0.4,0.2c0.2,0,0.3,0,0.4,0c0.2,0,0.4,0,0.5,0
				c0.1,0,0.2,0.1,0.3,0.2c0.1,0,0.3,0,0.4,0.1c0.2,0.1,0.3,0.1,0.4,0.1c0.2,0.1,0.5,0.2,0.8,0.3c0.3,0.1,0.5,0.2,0.8,0.4
				c0.1,0.1,0.2,0.2,0.3,0.3c0.1,0.1,0.2,0.1,0.3,0.1c0.1,0.1,0.2,0.2,0.3,0.3c0.1,0.1,0.2,0.1,0.3,0.3c0.1,0.1,0.2,0.3,0.3,0.4
				c0.1,0.2,0.1,0.4,0.3,0.6c0.1,0.1,0.2,0.3,0.2,0.4C383.8,123.6,383.8,123.9,383.8,124.1z"/>
			<path class="st1" d="M586.2,71.6L574.8,114l-1.2,4.5c-0.2,0.8-0.5,1.6-0.8,2.4c-0.3,0.8-0.6,1.6-1,2.3c-0.1,0.2-0.2,0.5-0.3,0.7
				c-0.1,0.2-0.2,0.5-0.3,0.7c-0.6,0.8-1.2,1.6-1.8,2.4c-0.6,0.8-1.4,1.5-2.2,2.1c-0.8,0.7-1.6,1.3-2.5,1.8c-0.9,0.5-1.8,1-2.7,1.3
				c-0.9,0.3-1.9,0.6-2.9,0.7c-1,0.1-2.1,0.2-3.3,0.2c-1.2,0-2.2-0.1-3.2-0.3c-1-0.2-1.8-0.4-2.3-0.8c-0.7-0.3-1.2-0.8-1.6-1.4
				c-0.3-0.6-0.6-1.3-0.7-2.1c-0.1-0.7-0.2-1.5-0.3-2.3c-0.1-0.9,0-1.7,0.1-2.5c0.1-0.9,0.3-1.8,0.5-2.8c0.2-0.9,0.5-2,0.7-3.1
				l12.5-46.2h-26.2c0.2,0.3,0.4,0.7,0.5,1c1.2,3,0.5,6.4-1.9,8.6L532,83l-11.8,43.7c-0.3,1.3-0.6,2.6-0.8,3.8l15.1,14.4
				c2.2,2.1,3,5.3,2,8.2c1.2,0.1,2.4,0.1,3.7,0.1c1.5,0,3-0.1,4.4-0.3c1.4-0.2,2.8-0.3,4.1-0.4c0.6-0.1,1.2-0.3,1.8-0.4
				c0.6-0.2,1.3-0.4,2-0.6c0.7-0.2,1.4-0.5,2-0.7c0.6-0.2,1.2-0.5,1.8-0.9c1.2-0.6,2.3-1.3,3.4-2.2c1.1-0.9,2.2-1.8,3.2-2.9
				c1-1,2-2.2,3-3.6c1-1.3,1.9-2.7,2.7-4.2h1.2l-4.8,15.4h26l21.7-80.9H586.2z"/>
			<polygon class="st1" points="625.5,37 594.7,152.5 621,152.5 651.9,37 			"/>
			<path class="st1" d="M702.5,123.2c0-0.1,0-0.2,0-0.3l0.2-0.2c0-0.1,0-0.2,0-0.3c-0.1,0-0.2,0-0.2-0.1c0-0.1,0.1-0.1,0.2-0.3
				c0-0.1,0-0.2,0-0.3c0-0.1,0-0.1,0-0.3c0.1-0.2,0.2-0.4,0.3-0.6c0.1-0.2,0.1-0.3,0.1-0.4c0-0.1,0-0.2,0.1-0.3
				c0.1-0.1,0.1-0.1,0.1-0.3c0-0.1,0-0.2,0.1-0.3c0.1-0.1,0.1-0.2,0.1-0.3l-21.3,0.3c0,0.1,0,0.2,0,0.3c0,0.1,0,0.2-0.1,0.3
				c-0.1,0.1-0.1,0.1-0.1,0.3c0,0.1,0,0.2,0,0.3c-0.1,0.1-0.2,0.2-0.2,0.3c-0.1,0.1-0.2,0.2-0.2,0.3c0,0.1,0,0.2,0,0.3
				c-0.1,0.1-0.2,0.2-0.2,0.3c0,0.1,0,0.2,0,0.3c-0.1,0.1-0.2,0.2-0.3,0.3c0,0.1,0,0.2,0,0.3c0,0.1,0,0.1,0,0.3
				c0,0.1-0.1,0.2-0.2,0.3c0,0.1-0.1,0.2-0.2,0.3c0,0.1,0,0.2,0,0.3c0,0.1-0.1,0.2-0.2,0.3c0,0.1,0,0.2,0,0.3c0,0.1-0.1,0.2-0.2,0.3
				c-0.2,0.7-0.5,1.4-0.8,2c-0.3,0.6-0.5,1.2-0.8,1.8c-0.2,0.5-0.5,1-0.8,1.5c-0.3,0.5-0.5,1-0.8,1.3c-0.3,0.5-0.7,0.8-1.1,1.1
				c-0.4,0.3-0.9,0.5-1.5,0.8c-0.5,0.1-1,0.2-1.7,0.3c-0.7,0.1-1.4,0.2-2.3,0.2c-0.6,0-1.1-0.1-1.6-0.2c-0.5-0.1-0.9-0.2-1.2-0.3
				c-0.2-0.2-0.4-0.5-0.6-0.7c-0.2-0.2-0.3-0.6-0.4-1c-0.1-0.3-0.2-0.7-0.3-1c-0.1-0.3-0.1-0.7-0.1-1.2c0.1-0.5,0.2-0.9,0.3-1.4
				c0.1-0.5,0.2-0.9,0.3-1.4c0-0.1,0-0.2,0-0.3c0-0.1,0-0.1,0-0.3c0.1-0.1,0.2-0.2,0.2-0.3c0-0.1,0-0.1,0-0.3c0-0.1,0.1-0.2,0.2-0.3
				v-0.2c0-0.1,0.1-0.2,0.2-0.3v-0.2c-0.1,0-0.2,0-0.2-0.1c0-0.1,0-0.1,0-0.3l0.2-0.2v-0.2c0-0.1,0-0.2,0-0.3
				c0.1-0.1,0.2-0.2,0.2-0.3c0.1-0.1,0.2-0.2,0.2-0.3l8.7-32.7h30.7l5.2-19.1h-30.7l4.5-17H660l-4.5,17h-9.9l-5.2,19.1h9.9
				l-10.2,38.3c-0.7,2.7-1.2,5.1-1.4,7.3c-0.2,2.2-0.2,4.2,0,5.9c0.2,1.7,0.7,3.2,1.6,4.3c0.8,1.2,1.8,2.1,3.1,2.8
				c1.2,0.7,2.5,1.3,4,1.8c1.5,0.5,3.2,1,5,1.3c1.7,0.1,3.6,0.3,5.6,0.4c2,0.2,4.2,0.3,6.5,0.3c2.8,0,5.4-0.1,7.8-0.3
				c2.4-0.2,4.7-0.5,6.8-1c2-0.5,3.8-1,5.5-1.7c1.7-0.7,3.3-1.5,4.7-2.4c1.4-0.9,2.7-2.1,3.9-3.5c1.2-1.4,2.3-2.9,3.4-4.7
				c0.9-1.7,1.8-3.6,2.7-5.7c0.9-2.1,1.6-4.4,2.3-6.9c0-0.1,0.1-0.2,0.2-0.3c0-0.2,0-0.4,0-0.5v-0.2v-0.2c0-0.1,0.1-0.2,0.2-0.3
				v-0.2c0-0.1,0-0.2,0-0.3c0-0.1,0.1-0.1,0.2-0.3c0-0.2,0-0.4,0-0.5l0.2-0.2v-0.2c0-0.1,0.1-0.2,0.2-0.3V123.2z"/>
			<path class="st1" d="M769.8,71.6L758.4,114l-1.2,4.5c-0.2,0.8-0.5,1.6-0.8,2.4c-0.3,0.8-0.6,1.6-1,2.3c-0.1,0.2-0.2,0.5-0.3,0.7
				c-0.1,0.2-0.2,0.5-0.3,0.7c-0.6,0.8-1.2,1.6-1.8,2.4c-0.6,0.8-1.4,1.5-2.2,2.1c-0.8,0.7-1.6,1.3-2.5,1.8c-0.9,0.5-1.8,1-2.7,1.3
				c-0.9,0.3-1.9,0.6-2.9,0.7c-1,0.1-2.1,0.2-3.3,0.2c-1.2,0-2.2-0.1-3.2-0.3c-1-0.2-1.8-0.4-2.3-0.8c-0.7-0.3-1.2-0.8-1.6-1.4
				c-0.3-0.6-0.6-1.3-0.7-2.1c-0.1-0.7-0.2-1.5-0.3-2.3c-0.1-0.9,0-1.7,0.1-2.5c0.1-0.9,0.3-1.8,0.5-2.8c0.2-0.9,0.5-2,0.7-3.1
				l12.5-46.2h-26.3l-14.9,55.1c-0.6,2.2-1,4.3-1.2,6.3c-0.2,2-0.3,3.8-0.2,5.5c0.1,1.7,0.4,3.3,0.9,4.7c0.5,1.4,1.1,2.7,1.9,3.8
				c0.9,1.2,2,2.1,3.1,2.9c1.2,0.8,2.5,1.4,4.2,2c1.5,0.5,3.2,0.8,5.1,1c1.9,0.2,4,0.3,6.1,0.3c1.5,0,3-0.1,4.4-0.3
				c1.4-0.2,2.8-0.3,4.1-0.4c0.6-0.1,1.2-0.3,1.8-0.4c0.6-0.2,1.3-0.4,2-0.6c0.7-0.2,1.4-0.5,2-0.7c0.6-0.2,1.2-0.5,1.8-0.9
				c1.2-0.6,2.3-1.3,3.4-2.2c1.1-0.9,2.2-1.8,3.2-2.9c1-1,2-2.2,3-3.6c1-1.3,1.9-2.7,2.7-4.2h1.2l-4.8,15.4h26l21.7-80.9H769.8z"/>
			<path class="st1" d="M833.2,107.1c0-0.1,0-0.1,0-0.2l0,0V107.1z"/>
			<path class="st1" d="M835,100.9c0,0.1,0,0.2,0,0.3c0,0.1,0,0.1,0,0.3c-0.1,0.1-0.2,0.2-0.2,0.3c0,0.1,0,0.1,0,0.3
				c-0.1,0.1-0.2,0.2-0.2,0.3c0,0.1,0,0.2,0,0.3c-0.1,0.1-0.2,0.2-0.2,0.3c0,0.1,0,0.2,0,0.3c-0.1,0.1-0.2,0.2-0.2,0.3
				c0,0.1,0,0.2,0,0.3c-0.1,0.1-0.2,0.2-0.2,0.3v0.2c-0.1,0.1-0.2,0.2-0.2,0.3c0,0.1,0,0.2,0,0.3c-0.1,0.1-0.2,0.2-0.2,0.3
				c0,0.1,0,0.1,0,0.3v0.2c-0.1,0.1-0.2,0.2-0.2,0.3c0,0.1,0,0.2,0,0.3l-0.2,0.2c-0.1,0.1-0.1,0.1-0.1,0.2l23.9,0.3
				c0-0.2,0-0.5,0.1-0.7c0.1-0.2,0.1-0.5,0.3-0.7c0-0.2,0-0.5,0.1-0.7c0.1-0.2,0.1-0.5,0.3-0.7c0-0.1,0-0.2,0-0.3
				c0-0.1,0.1-0.2,0.2-0.3c0-0.1,0.1-0.2,0.2-0.3c0-0.1,0-0.2,0-0.3c0-0.1,0-0.1,0-0.3c0-0.1,0-0.2,0-0.3c0-0.1,0-0.2,0-0.3
				c0-0.1,0.1-0.2,0.2-0.3c0-0.1,0-0.2,0-0.3l0.2-0.2c0-0.1,0-0.2,0-0.3c0-0.1,0.1-0.2,0.2-0.3c0-0.1,0-0.2,0-0.3c0-0.1,0-0.1,0-0.3
				c0.1-0.1,0.2-0.2,0.2-0.3c0-0.1,0-0.1,0-0.3c0.5-1.8,0.8-3.6,1.1-5.4c0.3-1.7,0.5-3.4,0.6-5c0.2-1.6,0.4-3.2,0.4-4.7
				c0.1-1.5,0.1-3,0.1-4.5c-0.1-1.5-0.5-2.8-1.2-3.9c-0.7-1.1-1.7-2-2.9-2.7c-1.3-0.7-2.9-1.2-4.8-1.6c-1.9-0.4-4.1-0.6-6.5-0.6
				c-1.3,0-2.5,0.1-3.6,0.3c-1.2,0.2-2.3,0.4-3.3,0.6c-1.2,0.2-2.2,0.5-3.1,0.9c-0.9,0.3-1.8,0.8-2.8,1.4c-0.8,0.5-1.6,1-2.5,1.7
				c-0.9,0.7-1.8,1.4-2.7,2.3c-0.8,0.8-1.6,1.6-2.4,2.5c-0.8,0.9-1.6,1.8-2.4,2.7h-1.2l3.6-12h-25.5l-21.7,80.9h26.3l12.3-46.4
				c0-0.1,0-0.2,0.1-0.3c0.1-0.1,0.1-0.1,0.1-0.3c0-0.1,0-0.2,0.1-0.3c0.1-0.1,0.1-0.1,0.1-0.3c0-0.2,0-0.4,0.1-0.6
				c0.1-0.2,0.1-0.3,0.3-0.4c0-0.1,0-0.2,0-0.3c0-0.1,0-0.1,0-0.3c0.1-0.1,0.2-0.2,0.2-0.3c0.1-0.1,0.2-0.2,0.2-0.3l0.2-0.2
				c0-0.1,0-0.2,0-0.3c0-0.1,0.1-0.2,0.2-0.3v-0.2c0.2-0.6,0.5-1.2,0.9-1.8c0.3-0.6,0.7-1.2,1-1.8c0.3-0.6,0.7-1.2,1.1-1.8
				c0.4-0.6,0.8-1.2,1.3-1.8c0.5-0.6,1-1,1.5-1.4c0.5-0.3,1.1-0.7,1.8-1c0.6-0.2,1.2-0.4,2-0.6c0.8-0.2,1.5-0.3,2.3-0.3
				c0.8,0,1.5,0.1,2.1,0.3c0.6,0.2,1.1,0.4,1.6,0.6c0.3,0.2,0.7,0.5,1,0.9c0.3,0.3,0.5,0.8,0.6,1.4c0,0.5,0,1,0,1.5
				c0,0.5,0.1,1.1,0.2,1.6c-0.1,0.5-0.2,1-0.3,1.6C835.2,99.7,835.1,100.3,835,100.9z"/>
			<path class="st1" d="M937.5,91.3c0.2-2.8,0.1-5.2-0.3-7.3c-0.5-2.1-1.2-3.8-2.3-5.2c-1-1.4-2.4-2.5-4.2-3.3
				c-1.6-0.7-3.4-1.3-5.5-1.8c-2-0.5-4.2-1-6.5-1.3c-2.3-0.3-4.7-0.6-7.3-0.9c-2.5-0.2-5.2-0.3-8-0.3c-2.4,0-4.8,0.1-7.1,0.3
				c-2.3,0.2-4.6,0.4-6.8,0.6c-2.2,0.3-4.3,0.7-6.3,1.1c-2,0.4-4,0.9-5.8,1.5c-1.8,0.6-3.6,1.5-5.3,2.7c-1.7,1.2-3.1,2.7-4.4,4.4
				c-1.4,1.7-2.6,3.8-3.6,6.1c-1,2.3-2,4.9-2.8,7.8h26.7V96c0.2-0.9,0.5-1.8,0.9-2.5c0.3-0.8,0.7-1.4,1.2-2c0.3-0.6,0.7-1.1,1.2-1.6
				c0.5-0.5,0.9-0.8,1.4-1c0.6-0.2,1.2-0.5,1.7-0.7c0.6-0.2,1.3-0.4,2.1-0.5c0.7-0.1,1.4-0.2,2.3-0.3c0.8-0.1,1.7-0.1,2.6-0.1
				c0.9,0,1.8,0.1,2.7,0.2c0.9,0.1,1.6,0.3,2.3,0.5c0.7,0.1,1.3,0.3,1.8,0.6c0.5,0.3,1,0.6,1.3,1c0.3,0.3,0.6,0.8,0.8,1.3
				c0.2,0.5,0.3,1.1,0.4,1.8c0,0.7,0,1.4-0.1,2.2c-0.1,0.8-0.2,1.6-0.4,2.5l-4,14.7l-1.2,0.3c-0.1-0.9-0.3-1.8-0.7-2.5
				c-0.3-0.8-0.8-1.4-1.2-2c-0.5-0.6-1-1.1-1.6-1.6c-0.6-0.5-1.3-0.8-2.1-1c-0.2-0.1-0.5-0.2-0.8-0.3c-0.3-0.1-0.5-0.1-0.8-0.3
				c-0.5-0.1-1-0.2-1.5-0.3c-0.5-0.1-1.1-0.2-1.6-0.3c-0.8-0.1-1.6-0.2-2.4-0.3c-0.8-0.1-1.7-0.1-2.6-0.3c-0.1,0-0.2,0-0.3,0
				c-0.1,0-0.2,0-0.3,0c-0.1,0-0.1,0-0.3,0c-0.1,0-0.2,0-0.3,0c-0.1,0-0.2,0-0.3,0c-0.1,0-0.2,0-0.3,0c-0.1,0-0.2,0-0.3,0
				c-0.1,0-0.2,0-0.3,0c-0.1,0-0.2,0-0.3,0c-2.4,0-4.7,0.1-6.9,0.3c-2.2,0.2-4.3,0.6-6.2,1c-2,0.5-3.8,1-5.6,1.6
				c-1.8,0.6-3.5,1.3-5.1,2.3c-1.6,0.8-3.1,1.9-4.5,3.2c-1.4,1.3-2.7,2.9-3.8,4.6c-1.2,1.7-2.2,3.7-3.1,6c-0.9,2.3-1.8,4.7-2.6,7.4
				c-0.6,2.2-1,4.2-1.1,6.1c-0.2,1.8-0.1,3.6,0.1,5.2c0.2,1.5,0.7,2.8,1.3,4c0.6,1.2,1.5,2.2,2.5,3.1c0.9,0.8,2,1.6,3.4,2.3
				c1.3,0.7,2.7,1.2,4.2,1.6c1.6,0.2,3.3,0.5,5,0.7c1.7,0.2,3.6,0.3,5.7,0.3c0.1,0,0.2,0,0.3,0c0.1,0,0.1,0,0.3,0c0.1,0,0.2,0,0.3,0
				c0.2,0,0.4,0,0.6,0c0.2,0,0.3,0,0.4,0c0.2-0.1,0.4-0.2,0.6-0.2s0.3,0,0.4,0c0.2,0,0.4,0,0.6,0s0.3,0,0.4,0c0.2,0,0.4,0,0.6,0
				c0.2,0,0.3,0,0.4,0c0.1,0,0.2,0,0.3,0c0.1,0,0.2,0,0.3,0c0.1-0.1,0.2-0.2,0.3-0.2c0.1,0,0.2,0,0.3,0c0.1,0,0.2,0,0.3,0
				c0.1,0,0.1,0,0.3,0c0.1-0.1,0.2-0.2,0.3-0.2c0.1,0,0.1,0,0.3,0c0.2,0,0.4,0,0.6,0s0.3,0,0.4,0c0.3,0,0.7,0,1-0.1
				c0.3-0.1,0.6-0.1,1-0.1c0.7,0,1.4-0.1,2-0.2c0.6-0.1,1.2-0.2,1.8-0.3c0.9-0.2,1.9-0.5,2.9-0.9c1-0.3,2-0.8,3-1.2
				c0.9-0.5,1.8-1,2.6-1.6c0.8-0.6,1.6-1.3,2.3-2.1c0.7-0.7,1.4-1.5,2-2.5c0.6-1,1.2-2,1.6-3.2h1l-4.2,12h26.3l13.9-52
				C936.7,97.2,937.3,94.1,937.5,91.3z M902.7,124.1c0,0.2,0,0.5,0,0.7c0,0.2-0.1,0.5-0.2,0.7c0,0.1,0,0.3,0,0.5
				c0,0.1,0,0.2-0.1,0.3c-0.1,0.1-0.1,0.2-0.1,0.3c0,0.1,0,0.2,0,0.3v0.2c-0.1,0.1-0.2,0.2-0.2,0.3v0.2c-0.2,1-0.5,2-1,2.8
				c-0.4,0.8-0.9,1.5-1.5,2.1c-0.5,0.6-1,1.1-1.6,1.6c-0.6,0.5-1.3,0.8-2,1c-0.8,0.2-1.6,0.4-2.3,0.6c-0.8,0.2-1.5,0.3-2.2,0.4
				c-0.8,0.1-1.6,0.2-2.4,0.3c-0.8,0.1-1.6,0.1-2.4,0.1c-0.8,0-1.6,0-2.5,0c-0.9,0-1.6-0.1-2.3-0.2c-0.7-0.1-1.4-0.3-2-0.4
				c-0.6-0.2-1.2-0.3-1.8-0.4c-0.7-0.2-1.2-0.5-1.6-0.9c-0.4-0.3-0.7-0.9-0.8-1.6c-0.1-0.7-0.1-1.5-0.1-2.4c0.1-0.9,0.3-2,0.6-3.1
				v0.3c0.2-0.9,0.5-1.8,0.8-2.5c0.3-0.8,0.7-1.4,1.1-2c0.3-0.6,0.8-1.1,1.3-1.5c0.5-0.4,1.1-0.7,1.8-1c0.6-0.2,1.2-0.4,1.9-0.6
				c0.7-0.2,1.4-0.3,2.3-0.4c0.7-0.1,1.4-0.2,2.2-0.3c0.7-0.1,1.5-0.1,2.3-0.1c0.2,0,0.4,0,0.6,0c0.2,0,0.4,0,0.6,0
				c0.2,0,0.5,0,0.7,0c0.2,0,0.5,0,0.7,0c0.1,0,0.2,0,0.3,0c0.1,0,0.2,0,0.3,0c0.1,0,0.3,0,0.4,0s0.3,0,0.4,0
				c0.1,0.1,0.2,0.2,0.3,0.2c0.1,0,0.2,0,0.3,0c0.1,0,0.2,0,0.3,0c0.1,0,0.2,0,0.3,0c0.2,0,0.4,0,0.5,0.1c0.1,0.1,0.3,0.1,0.5,0.1
				c0.1,0.1,0.3,0.2,0.4,0.2c0.2,0,0.3,0,0.4,0c0.2,0,0.4,0,0.5,0c0.1,0,0.2,0.1,0.3,0.2c0.1,0,0.3,0,0.4,0.1
				c0.2,0.1,0.3,0.1,0.4,0.1c0.2,0.1,0.5,0.2,0.8,0.3c0.3,0.1,0.5,0.2,0.8,0.4c0.1,0.1,0.2,0.2,0.3,0.3c0.1,0.1,0.2,0.1,0.3,0.1
				c0.1,0.1,0.2,0.2,0.3,0.3c0.1,0.1,0.2,0.1,0.3,0.3c0.1,0.1,0.2,0.3,0.3,0.4c0.1,0.2,0.1,0.4,0.3,0.6c0.1,0.1,0.2,0.3,0.2,0.4
				C902.7,123.6,902.7,123.9,902.7,124.1z"/>
			<polygon class="st1" points="956.4,37 925.6,152.5 951.9,152.5 982.7,37 			"/>
			<path class="st1" d="M533,152.2c0.7-1.6,0.3-3.5-1-4.7L485.5,103c-1.3-1.2-1.7-3.1-1-4.7c0.7-1.6,2.2-2.7,4-2.7c0,0,0,0,0,0h13.8
				c7.4,0,14.5-2.9,19.9-8l9.3-8.9c1.3-1.2,1.7-3.1,1-4.7c-0.7-1.6-2.2-2.7-4-2.7h-20.9c-7.4,0-14.6,2.9-19.9,8l-4.6,4.4
				c-0.4,0.4-1,0.6-1.5,0.6c0,0,0,0,0,0c0,0,0,0,0,0c-0.9,0-1.7-0.6-2.1-1.4c-0.3-0.8-0.1-1.8,0.5-2.4l1.8-1.7
				c1.3-1.2,1.7-3.1,1-4.7c-0.7-1.6-2.2-2.7-4-2.7h-20.9c-7.4,0-14.5,2.9-19.9,8l-41.3,39.4c-1.3,1.2-1.7,3.1-1,4.7
				c0.7,1.6,2.2,2.7,4,2.7h20.9c0,0,0,0,0,0c7.4,0,14.5-2.9,19.9-8l5.8-5.5c0.8-0.8,1.9-1.2,3-1.2s2.2,0.4,3,1.2l36,34.3
				c5.4,5.1,12.5,8,19.9,8H529C530.8,154.9,532.4,153.8,533,152.2z"/>
		</g>
		<g>
			<path class="st1" d="M968.8,152.5h-5.3l4-15.1h-5l1.2-4.5h15.5l-1.2,4.5h-5.3L968.8,152.5z"/>
			<path class="st1" d="M1000.1,152.5h-5.2l4.4-15h-0.1l-8.9,15h-4.5l-1-15h-0.2l-3.6,15h-5.2l5.2-19.6h8.3l0.4,12.3h0.2l6.8-12.3
				h8.5L1000.1,152.5z"/>
		</g>
	</g>
	<rect x="28" y="29.3" class="st1" width="216.7" height="138.9"/>
	<path class="st0" d="M237.4,156.9c1-2.4,0.4-5.2-1.5-7l-69.2-66.1c-1.9-1.8-2.5-4.6-1.5-7c1-2.4,3.3-4,6-4c0,0,0,0,0,0h20.5
		c11,0,21.6-4.3,29.6-11.9l13.8-13.2c1.9-1.8,2.5-4.6,1.5-7c-1-2.4-3.3-4-6-4h-31c-11,0-21.6,4.3-29.6,11.9l-6.8,6.5
		c-0.6,0.6-1.4,0.9-2.3,0.9c0,0,0,0,0,0c0,0,0,0,0,0c-1.3,0-2.6-0.8-3.1-2.1c-0.5-1.3-0.2-2.7,0.8-3.6l2.6-2.5
		c1.9-1.8,2.5-4.6,1.5-7c-1-2.4-3.3-4-6-4h-31c-11,0-21.6,4.2-29.6,11.9l-61.4,58.6c-1.9,1.8-2.5,4.6-1.5,7c1,2.4,3.3,4,6,4h31.1
		c0,0,0,0,0,0c11,0,21.6-4.2,29.6-11.8l8.6-8.2c1.2-1.2,2.8-1.8,4.4-1.8s3.2,0.6,4.4,1.8l53.5,51.1c8,7.6,18.6,11.9,29.6,11.9h31
		C234,160.9,236.4,159.3,237.4,156.9z"/>
</g>
</svg>
